<svg width="512" height="512" viewBox="0 0 512 512" fill="none" xmlns="http://www.w3.org/2000/svg">
<rect width="512" height="512" fill="white"/>
<path d="M248.16 149.5C252.302 149.5 255.66 146.142 255.66 142C255.66 137.858 252.302 134.5 248.16 134.5V149.5ZM131 142V134.5C126.858 134.5 123.5 137.858 123.5 142H131ZM131 349.538H123.5C123.5 353.68 126.858 357.038 131 357.038V349.538ZM248.16 357.038C252.302 357.038 255.66 353.68 255.66 349.538C255.66 345.396 252.302 342.038 248.16 342.038V357.038ZM218.178 252.807C222.321 252.807 225.678 249.449 225.678 245.307C225.678 241.165 222.321 237.807 218.178 237.807V252.807ZM273.762 134.5C269.62 134.5 266.262 137.858 266.262 142C266.262 146.142 269.62 149.5 273.762 149.5V134.5ZM390 142L396.541 145.67C397.844 143.347 397.818 140.508 396.472 138.21C395.126 135.912 392.663 134.5 390 134.5V142ZM273.301 350L266.76 346.33C265.457 348.653 265.483 351.492 266.829 353.79C268.175 356.088 270.638 357.5 273.301 357.5V350ZM390 357.5C394.142 357.5 397.5 354.142 397.5 350C397.5 345.858 394.142 342.5 390 342.5V357.5ZM248.16 134.5H131V149.5H248.16V134.5ZM131 357.038H248.16V342.038H131V357.038ZM123.5 142V245.307H138.5V142H123.5ZM123.5 245.307V349.538H138.5V245.307H123.5ZM131 252.807H218.178V237.807H131V252.807ZM273.762 149.5H390V134.5H273.762V149.5ZM383.459 138.33L266.76 346.33L279.842 353.67L396.541 145.67L383.459 138.33ZM273.301 357.5H390V342.5H273.301V357.5Z" fill="black"/>
<path d="M139.276 417.845H123.139L118.939 427H112.812L131.464 386.937L149.457 427H143.231L139.276 417.845ZM136.957 412.498L131.366 399.681L125.507 412.498H136.957ZM180.292 391.331V398.069C177.004 395.319 173.603 393.943 170.087 393.943C166.213 393.943 162.95 395.335 160.297 398.118C157.628 400.885 156.293 404.271 156.293 408.274C156.293 412.229 157.628 415.566 160.297 418.284C162.966 421.002 166.238 422.361 170.111 422.361C172.113 422.361 173.814 422.036 175.214 421.385C175.995 421.059 176.801 420.62 177.631 420.066C178.477 419.513 179.364 418.846 180.292 418.064V424.925C177.037 426.764 173.619 427.684 170.038 427.684C164.651 427.684 160.053 425.804 156.244 422.044C152.452 418.252 150.556 413.678 150.556 408.323C150.556 403.522 152.143 399.241 155.316 395.481C159.223 390.875 164.276 388.572 170.478 388.572C173.863 388.572 177.134 389.492 180.292 391.331ZM215.351 391.331V398.069C212.063 395.319 208.661 393.943 205.146 393.943C201.272 393.943 198.008 395.335 195.355 398.118C192.686 400.885 191.352 404.271 191.352 408.274C191.352 412.229 192.686 415.566 195.355 418.284C198.025 421.002 201.296 422.361 205.17 422.361C207.172 422.361 208.873 422.036 210.272 421.385C211.054 421.059 211.859 420.62 212.689 420.066C213.536 419.513 214.423 418.846 215.351 418.064V424.925C212.095 426.764 208.677 427.684 205.097 427.684C199.709 427.684 195.111 425.804 191.303 422.044C187.51 418.252 185.614 413.678 185.614 408.323C185.614 403.522 187.201 399.241 190.375 395.481C194.281 390.875 199.335 388.572 205.536 388.572C208.922 388.572 212.193 389.492 215.351 391.331ZM243.354 394.651H228.241V403.709H242.914V409.056H228.241V421.653H243.354V427H222.553V389.305H243.354V394.651ZM272.138 394.92L267.523 397.654C266.661 396.157 265.839 395.18 265.058 394.725C264.244 394.204 263.194 393.943 261.908 393.943C260.329 393.943 259.019 394.391 257.978 395.286C256.936 396.165 256.415 397.272 256.415 398.606C256.415 400.446 257.782 401.927 260.517 403.05L264.276 404.588C267.336 405.825 269.574 407.339 270.99 409.129C272.406 410.903 273.114 413.084 273.114 415.672C273.114 419.139 271.959 422.003 269.647 424.266C267.32 426.544 264.431 427.684 260.98 427.684C257.709 427.684 255.007 426.715 252.875 424.778C250.775 422.841 249.465 420.115 248.944 416.6L254.706 415.33C254.966 417.544 255.422 419.074 256.073 419.92C257.245 421.548 258.954 422.361 261.2 422.361C262.974 422.361 264.447 421.767 265.619 420.579C266.791 419.391 267.377 417.885 267.377 416.062C267.377 415.33 267.271 414.663 267.06 414.061C266.864 413.442 266.547 412.881 266.107 412.376C265.684 411.855 265.131 411.375 264.447 410.936C263.764 410.48 262.95 410.049 262.006 409.642L258.368 408.128C253.209 405.947 250.629 402.757 250.629 398.558C250.629 395.726 251.711 393.357 253.876 391.453C256.041 389.533 258.734 388.572 261.957 388.572C266.303 388.572 269.696 390.688 272.138 394.92ZM301.288 394.92L296.674 397.654C295.811 396.157 294.989 395.18 294.208 394.725C293.394 394.204 292.344 393.943 291.059 393.943C289.48 393.943 288.17 394.391 287.128 395.286C286.086 396.165 285.565 397.272 285.565 398.606C285.565 400.446 286.933 401.927 289.667 403.05L293.427 404.588C296.487 405.825 298.725 407.339 300.141 409.129C301.557 410.903 302.265 413.084 302.265 415.672C302.265 419.139 301.109 422.003 298.798 424.266C296.47 426.544 293.581 427.684 290.131 427.684C286.859 427.684 284.158 426.715 282.025 424.778C279.926 422.841 278.616 420.115 278.095 416.6L283.856 415.33C284.117 417.544 284.573 419.074 285.224 419.92C286.396 421.548 288.104 422.361 290.351 422.361C292.125 422.361 293.598 421.767 294.77 420.579C295.941 419.391 296.527 417.885 296.527 416.062C296.527 415.33 296.422 414.663 296.21 414.061C296.015 413.442 295.697 412.881 295.258 412.376C294.835 411.855 294.281 411.375 293.598 410.936C292.914 410.48 292.1 410.049 291.156 409.642L287.519 408.128C282.359 405.947 279.779 402.757 279.779 398.558C279.779 395.726 280.862 393.357 283.026 391.453C285.191 389.533 287.885 388.572 291.107 388.572C295.453 388.572 298.847 390.688 301.288 394.92ZM314.813 389.305V427H309.125V389.305H314.813ZM323.871 427V389.305H329.535C332.058 389.305 334.068 389.5 335.565 389.891C337.079 390.281 338.357 390.94 339.398 391.868C340.456 392.828 341.295 394.025 341.913 395.457C342.548 396.906 342.865 398.37 342.865 399.852C342.865 402.553 341.832 404.84 339.765 406.712C341.767 407.396 343.345 408.592 344.501 410.301C345.673 411.993 346.259 413.963 346.259 416.209C346.259 419.155 345.217 421.645 343.134 423.68C341.881 424.933 340.473 425.804 338.91 426.292C337.201 426.764 335.061 427 332.489 427H323.871ZM329.56 405.491H331.342C333.458 405.491 335.004 405.027 335.98 404.1C336.973 403.156 337.47 401.772 337.47 399.949C337.47 398.175 336.965 396.832 335.956 395.921C334.947 394.993 333.482 394.529 331.562 394.529H329.56V405.491ZM329.56 421.653H333.075C335.647 421.653 337.535 421.149 338.739 420.14C340.009 419.049 340.644 417.666 340.644 415.989C340.644 414.362 340.033 412.994 338.812 411.888C337.624 410.797 335.5 410.252 332.44 410.252H329.56V421.653ZM359.149 389.305V421.653H370.233V427H353.461V389.305H359.149ZM396.43 394.651H381.317V403.709H395.99V409.056H381.317V421.653H396.43V427H375.629V389.305H396.43V394.651Z" fill="black"/>
</svg>
