<svg width="512" height="512" viewBox="0 0 512 512" fill="none" xmlns="http://www.w3.org/2000/svg">
<rect width="512" height="512" fill="white"/>
<path d="M239 154C244.523 154 249 149.523 249 144C249 138.477 244.523 134 239 134V154ZM112 144V134C106.477 134 102 138.477 102 144H112ZM112 368.5H102C102 374.023 106.477 378.5 112 378.5V368.5ZM239 378.5C244.523 378.5 249 374.023 249 368.5C249 362.977 244.523 358.5 239 358.5V378.5ZM206.5 265.75C212.023 265.75 216.5 261.273 216.5 255.75C216.5 250.227 212.023 245.75 206.5 245.75V265.75ZM274.5 134C268.977 134 264.5 138.477 264.5 144C264.5 149.523 268.977 154 274.5 154V134ZM400.5 144L409.217 148.901C410.958 145.804 410.925 142.017 409.132 138.951C407.338 135.884 404.052 134 400.5 134V144ZM274 369L265.283 364.099C263.542 367.196 263.575 370.983 265.368 374.049C267.162 377.116 270.448 379 274 379V369ZM400.5 379C406.023 379 410.5 374.523 410.5 369C410.5 363.477 406.023 359 400.5 359V379ZM239 134H112V154H239V134ZM112 378.5H239V358.5H112V378.5ZM102 144V255.75H122V144H102ZM102 255.75V368.5H122V255.75H102ZM112 265.75H206.5V245.75H112V265.75ZM274.5 154H400.5V134H274.5V154ZM391.783 139.099L265.283 364.099L282.717 373.901L409.217 148.901L391.783 139.099ZM274 379H400.5V359H274V379Z" fill="black"/>
</svg>
