<svg width="512" height="512" viewBox="0 0 512 512" fill="none" xmlns="http://www.w3.org/2000/svg">
<rect width="512" height="512" fill="white"/>
<path d="M246 149C248.761 149 251 146.761 251 144C251 141.239 248.761 139 246 139V149ZM119 144V139C116.239 139 114 141.239 114 144H119ZM119 368.5H114C114 371.261 116.239 373.5 119 373.5V368.5ZM246 373.5C248.761 373.5 251 371.261 251 368.5C251 365.739 248.761 363.5 246 363.5V373.5ZM213.5 260.75C216.261 260.75 218.5 258.511 218.5 255.75C218.5 252.989 216.261 250.75 213.5 250.75V260.75ZM270.5 139C267.739 139 265.5 141.239 265.5 144C265.5 146.761 267.739 149 270.5 149V139ZM396.5 144L400.858 146.45C401.729 144.902 401.713 143.008 400.816 141.475C399.919 139.942 398.276 139 396.5 139V144ZM270 369L265.642 366.55C264.771 368.098 264.787 369.992 265.684 371.525C266.581 373.058 268.224 374 270 374V369ZM396.5 374C399.261 374 401.5 371.761 401.5 369C401.5 366.239 399.261 364 396.5 364V374ZM246 139H119V149H246V139ZM119 373.5H246V363.5H119V373.5ZM114 144V255.75H124V144H114ZM114 255.75V368.5H124V255.75H114ZM119 260.75H213.5V250.75H119V260.75ZM270.5 149H396.5V139H270.5V149ZM392.142 141.55L265.642 366.55L274.358 371.45L400.858 146.45L392.142 141.55ZM270 374H396.5V364H270V374Z" fill="black"/>
</svg>
