<svg width="512" height="512" viewBox="0 0 512 512" fill="none" xmlns="http://www.w3.org/2000/svg">
<rect width="512" height="512" fill="white"/>
<path d="M145.5 336.151V341.151V336.151ZM129 234.651L130.283 239.483C131.587 239.137 132.696 238.278 133.358 237.102C134.02 235.925 134.178 234.532 133.796 233.237L129 234.651ZM206 170.651L202.532 174.253C204.166 175.826 206.654 176.102 208.593 174.926C210.532 173.749 211.437 171.415 210.797 169.24L206 170.651ZM300 108.151L298.695 112.977L300 108.151ZM352.5 206.651L347.729 205.154C347.253 206.672 347.528 208.327 348.47 209.61C349.412 210.893 350.908 211.651 352.5 211.651V206.651ZM145.5 331.151C129.418 331.151 114.084 326.408 102.898 318.451C91.7494 310.521 85 299.653 85 287.151H75C75 303.648 84.0006 317.281 97.1017 326.6C110.166 335.893 127.582 341.151 145.5 341.151V331.151ZM85 287.151C85 269.304 91.8207 258.887 100.496 252.181C109.492 245.226 120.801 242.001 130.283 239.483L127.717 229.818C118.366 232.301 105.174 235.925 94.3794 244.27C83.2626 252.864 75 266.198 75 287.151H85ZM133.796 233.237C129.116 217.357 123.228 194.341 142.155 174.062L134.845 167.239C111.772 191.96 119.551 220.278 124.204 236.064L133.796 233.237ZM142.155 174.062C151.656 163.883 162.637 160.184 173.161 160.768C183.824 161.359 194.354 166.38 202.532 174.253L209.468 167.048C199.812 157.754 187.092 151.525 173.714 150.783C160.196 150.034 146.344 154.918 134.845 167.239L142.155 174.062ZM210.797 169.24C210.6 168.572 210.473 166.89 210.989 164.038C211.48 161.322 212.475 157.981 214.03 154.271C217.141 146.85 222.35 138.298 229.674 130.705C244.18 115.666 266.905 104.385 298.695 112.977L301.305 103.324C265.463 93.6368 239.105 106.523 222.477 123.762C214.234 132.308 208.364 141.923 204.808 150.405C203.03 154.646 201.794 158.691 201.149 162.258C200.528 165.689 200.358 169.187 201.203 172.061L210.797 169.24ZM298.695 112.977C324.659 119.994 338.657 136.919 345.369 155.187C352.173 173.706 351.402 193.448 347.729 205.154L357.271 208.147C361.598 194.353 362.327 172.345 354.756 151.739C347.093 130.882 330.841 111.307 301.305 103.324L298.695 112.977ZM352.5 211.651C392.357 211.651 421 237.416 421 271.651H431C431 230.732 396.643 201.651 352.5 201.651V211.651ZM421 271.651C421 289.115 414.407 303.884 403.108 314.319C391.783 324.777 375.426 331.151 355.5 331.151V341.151C377.574 341.151 396.467 334.063 409.892 321.665C423.343 309.243 431 291.763 431 271.651H421ZM145.5 341.151H181V331.151H145.5V341.151ZM355.5 331.151H327.5V341.151H355.5V331.151ZM233 341.151H278.5V331.151H233V341.151Z" fill="black"/>
<path d="M213.5 271.5C213.5 268.739 211.261 266.5 208.5 266.5C205.739 266.5 203.5 268.739 203.5 271.5H213.5ZM208.5 416L204.992 419.562C206.948 421.49 210.093 421.478 212.036 419.536L208.5 416ZM179.008 379.938C177.041 378 173.875 378.024 171.938 379.992C170 381.959 170.024 385.125 171.992 387.062L179.008 379.938ZM244.536 387.036C246.488 385.083 246.488 381.917 244.536 379.964C242.583 378.012 239.417 378.012 237.464 379.964L244.536 387.036ZM299 416C299 418.761 301.239 421 304 421C306.761 421 309 418.761 309 416H299ZM304 271.5L307.59 268.02C306.658 267.058 305.379 266.511 304.039 266.5C302.699 266.49 301.412 267.017 300.464 267.964L304 271.5ZM267.964 300.464C266.012 302.417 266.012 305.583 267.964 307.536C269.917 309.488 273.083 309.488 275.036 307.536L267.964 300.464ZM331.91 307.48C333.832 309.463 336.997 309.512 338.98 307.59C340.963 305.668 341.012 302.503 339.09 300.52L331.91 307.48ZM203.5 271.5V416H213.5V271.5H203.5ZM171.992 387.062L204.992 419.562L212.008 412.438L179.008 379.938L171.992 387.062ZM212.036 419.536L244.536 387.036L237.464 379.964L204.964 412.464L212.036 419.536ZM309 416V271.5H299V416H309ZM275.036 307.536L307.536 275.036L300.464 267.964L267.964 300.464L275.036 307.536ZM300.41 274.98L331.91 307.48L339.09 300.52L307.59 268.02L300.41 274.98Z" fill="black"/>
</svg>
