<svg width="512" height="512" viewBox="0 0 512 512" fill="none" xmlns="http://www.w3.org/2000/svg">
<rect width="512" height="512" fill="white"/>
<path d="M145.5 336.151V346.151V336.151ZM129 234.651L131.566 244.316C134.175 243.623 136.393 241.905 137.716 239.553C139.039 237.2 139.355 234.413 138.592 231.823L129 234.651ZM206 170.651L199.065 177.855C202.333 181.001 207.308 181.553 211.186 179.201C215.064 176.848 216.873 172.18 215.594 167.829L206 170.651ZM300 108.151L297.391 117.804L300 108.151ZM352.5 206.651L342.959 203.657C342.006 206.694 342.556 210.004 344.44 212.569C346.324 215.135 349.317 216.651 352.5 216.651V206.651ZM145.5 326.151C130.337 326.151 116.042 321.665 105.796 314.377C95.6239 307.141 90 297.656 90 287.151H70C70 305.645 80.1261 320.66 94.2035 330.674C108.208 340.636 126.663 346.151 145.5 346.151V326.151ZM90 287.151C90 270.856 96.0998 261.899 103.554 256.137C111.651 249.877 122.018 246.851 131.566 244.316L126.434 224.985C117.149 227.451 103.016 231.274 91.3214 240.314C78.9835 249.852 70 264.645 70 287.151H90ZM138.592 231.823C133.898 215.897 128.956 195.532 145.811 177.474L131.189 163.827C106.044 190.769 114.769 221.738 119.408 237.478L138.592 231.823ZM145.811 177.474C154.311 168.366 163.858 165.26 172.884 165.76C182.19 166.276 191.625 170.694 199.065 177.855L212.935 163.446C202.541 153.441 188.727 146.608 173.991 145.791C158.975 144.958 143.689 150.435 131.189 163.827L145.811 177.474ZM215.594 167.829C215.722 168.264 215.446 167.49 215.909 164.928C216.324 162.637 217.197 159.648 218.641 156.204C221.53 149.314 226.408 141.294 233.273 134.176C246.717 120.237 267.626 109.76 297.391 117.804L302.609 98.497C264.741 88.2624 236.567 101.952 218.878 120.291C210.176 129.312 203.975 139.459 200.196 148.472C198.307 152.979 196.951 157.376 196.228 161.368C195.555 165.089 195.237 169.495 196.406 173.472L215.594 167.829ZM297.391 117.804C321.567 124.338 334.44 139.938 340.676 156.912C347.096 174.386 346.303 192.996 342.959 203.657L362.041 209.644C366.697 194.805 367.404 171.665 359.449 150.014C351.31 127.863 333.933 106.963 302.609 98.497L297.391 117.804ZM352.5 216.651C390.214 216.651 416 240.757 416 271.651H436C436 227.391 398.786 196.651 352.5 196.651V216.651ZM416 271.651C416 287.791 409.939 301.205 399.716 310.645C389.441 320.133 374.353 326.151 355.5 326.151V346.151C378.647 346.151 398.809 338.706 413.284 325.338C427.811 311.923 436 293.087 436 271.651H416ZM145.5 346.151H181V326.151H145.5V346.151ZM355.5 326.151H327.5V346.151H355.5V326.151ZM233 346.151H278.5V326.151H233V346.151Z" fill="black"/>
<path d="M218.5 271.5C218.5 265.977 214.023 261.5 208.5 261.5C202.977 261.5 198.5 265.977 198.5 271.5H218.5ZM208.5 416L201.483 423.125C205.397 426.979 211.687 426.955 215.571 423.071L208.5 416ZM182.517 376.375C178.582 372.5 172.25 372.548 168.375 376.483C164.5 380.418 164.548 386.75 168.483 390.625L182.517 376.375ZM248.071 390.571C251.976 386.666 251.976 380.334 248.071 376.429C244.166 372.524 237.834 372.524 233.929 376.429L248.071 390.571ZM294 416C294 421.523 298.477 426 304 426C309.523 426 314 421.523 314 416H294ZM304 271.5L311.181 264.54C309.316 262.616 306.757 261.521 304.078 261.5C301.399 261.479 298.823 262.534 296.929 264.429L304 271.5ZM264.429 296.929C260.524 300.834 260.524 307.166 264.429 311.071C268.334 314.976 274.666 314.976 278.571 311.071L264.429 296.929ZM328.319 310.96C332.163 314.926 338.494 315.024 342.46 311.181C346.426 307.337 346.524 301.006 342.681 297.04L328.319 310.96ZM198.5 271.5V416H218.5V271.5H198.5ZM168.483 390.625L201.483 423.125L215.517 408.875L182.517 376.375L168.483 390.625ZM215.571 423.071L248.071 390.571L233.929 376.429L201.429 408.929L215.571 423.071ZM314 416V271.5H294V416H314ZM278.571 311.071L311.071 278.571L296.929 264.429L264.429 296.929L278.571 311.071ZM296.819 278.46L328.319 310.96L342.681 297.04L311.181 264.54L296.819 278.46Z" fill="black"/>
</svg>
