<svg width="512" height="512" viewBox="0 0 512 512" fill="none" xmlns="http://www.w3.org/2000/svg">
<rect width="512" height="512" fill="white"/>
<path d="M172.545 290V297.5V290ZM159.812 211.839L161.733 219.089C163.691 218.57 165.356 217.281 166.349 215.515C167.342 213.75 167.579 211.657 167.005 209.714L159.812 211.839ZM219.231 162.555L214.036 167.964C216.488 170.32 220.22 170.731 223.126 168.964C226.033 167.198 227.387 163.697 226.425 160.435L219.231 162.555ZM291.769 114.426L289.816 121.667L291.769 114.426ZM332.282 190.277L325.127 188.028C324.411 190.306 324.822 192.789 326.235 194.714C327.648 196.64 329.894 197.777 332.282 197.777V190.277ZM172.545 282.5C160.8 282.5 149.722 279.034 141.775 273.392C133.881 267.789 129.5 260.43 129.5 252.267H114.5C114.5 266.436 122.273 277.943 133.092 285.624C143.858 293.266 158.052 297.5 172.545 297.5V282.5ZM129.5 252.267C129.5 239.663 134.233 232.708 140.037 228.231C146.325 223.38 154.367 221.04 161.733 219.089L157.891 204.589C150.724 206.488 139.86 209.423 130.875 216.354C121.406 223.658 114.5 234.992 114.5 252.267H129.5ZM167.005 209.714C163.383 197.453 159.533 181.671 172.621 167.678L161.665 157.432C142.343 178.092 149.039 201.84 152.619 213.963L167.005 209.714ZM172.621 167.678C179.222 160.62 186.653 158.199 193.689 158.589C200.934 158.99 208.264 162.419 214.036 167.964L224.427 157.146C216.437 149.471 205.825 144.238 194.518 143.612C183.001 142.974 171.269 147.164 161.665 157.432L172.621 167.678ZM226.425 160.435C226.512 160.729 226.304 160.099 226.664 158.115C226.987 156.335 227.666 154.02 228.784 151.358C231.022 146.032 234.799 139.834 240.116 134.334C250.534 123.554 266.752 115.447 289.816 121.667L293.722 107.185C264.595 99.3294 242.937 109.832 229.33 123.909C222.635 130.836 217.862 138.628 214.955 145.548C213.501 149.009 212.459 152.382 211.905 155.44C211.387 158.294 211.147 161.654 212.037 164.675L226.425 160.435ZM289.816 121.667C308.554 126.721 318.533 138.792 323.363 151.911C328.332 165.406 327.72 179.779 325.127 188.028L339.437 192.526C343.017 181.139 343.563 163.361 337.439 146.728C331.176 129.718 317.812 113.682 293.722 107.185L289.816 121.667ZM332.282 197.777C361.493 197.777 381.5 216.421 381.5 240.331H396.5C396.5 206.368 367.891 182.777 332.282 182.777V197.777ZM381.5 240.331C381.5 252.808 376.803 263.19 368.87 270.501C360.896 277.849 349.196 282.5 334.597 282.5V297.5C352.408 297.5 367.909 291.785 379.035 281.532C390.2 271.243 396.5 256.79 396.5 240.331H381.5ZM172.545 297.5H199.939V282.5H172.545V297.5ZM334.597 282.5H312.99V297.5H334.597V282.5ZM240.066 297.5H275.178V282.5H240.066V297.5Z" fill="black"/>
<path d="M228.869 240C228.869 235.858 225.511 232.5 221.369 232.5C217.227 232.5 213.869 235.858 213.869 240H228.869ZM221.369 352L216.084 357.322C217.496 358.724 219.408 359.508 221.397 359.5C223.387 359.492 225.293 358.694 226.694 357.281L221.369 352ZM201.285 321.488C198.345 318.569 193.597 318.586 190.678 321.525C187.759 324.464 187.776 329.213 190.715 332.132L201.285 321.488ZM251.678 332.091C254.595 329.15 254.576 324.402 251.635 321.485C248.694 318.568 243.945 318.587 241.028 321.528L251.678 332.091ZM287.284 352C287.284 356.142 290.642 359.5 294.784 359.5C298.927 359.5 302.284 356.142 302.284 352H287.284ZM294.784 240L300.191 234.802C298.791 233.346 296.863 232.516 294.843 232.5C292.823 232.484 290.882 233.284 289.459 234.719L294.784 240ZM264.475 259.909C261.558 262.85 261.578 267.598 264.519 270.515C267.459 273.432 272.208 273.413 275.125 270.472L264.475 259.909ZM313.593 270.388C316.464 273.374 321.212 273.468 324.198 270.597C327.184 267.727 327.277 262.979 324.407 259.993L313.593 270.388ZM213.869 240V352H228.869V240H213.869ZM190.715 332.132L216.084 357.322L226.653 346.678L201.285 321.488L190.715 332.132ZM226.694 357.281L251.678 332.091L241.028 321.528L216.044 346.719L226.694 357.281ZM302.284 352V240H287.284V352H302.284ZM275.125 270.472L300.109 245.281L289.459 234.719L264.475 259.909L275.125 270.472ZM289.378 245.198L313.593 270.388L324.407 259.993L300.191 234.802L289.378 245.198Z" fill="black"/>
<path d="M153.949 427V389.305H161.859C165.652 389.305 168.646 389.679 170.844 390.428C173.204 391.16 175.344 392.405 177.265 394.163C181.155 397.711 183.1 402.374 183.1 408.152C183.1 413.947 181.073 418.634 177.021 422.215C174.986 424.005 172.854 425.25 170.624 425.95C168.541 426.65 165.587 427 161.762 427H153.949ZM159.638 421.653H162.201C164.757 421.653 166.881 421.385 168.573 420.848C170.266 420.278 171.796 419.375 173.163 418.138C175.963 415.582 177.362 412.254 177.362 408.152C177.362 404.018 175.979 400.665 173.212 398.094C170.722 395.799 167.051 394.651 162.201 394.651H159.638V421.653ZM210.565 417.845H194.428L190.229 427H184.101L202.753 386.937L220.746 427H214.521L210.565 417.845ZM208.246 412.498L202.655 399.681L196.796 412.498H208.246ZM233.783 394.651V427H228.095V394.651H219.428V389.305H242.426V394.651H233.783ZM267.597 417.845H251.459L247.26 427H241.132L259.784 386.937L277.777 427H271.552L267.597 417.845ZM265.277 412.498L259.687 399.681L253.827 412.498H265.277ZM301.337 394.651H288.202V403.709H300.873V409.056H288.202V427H282.514V389.305H301.337V394.651ZM313.642 389.305V412.01C313.642 415.249 314.171 417.617 315.229 419.114C316.807 421.279 319.029 422.361 321.894 422.361C324.774 422.361 327.004 421.279 328.583 419.114C329.641 417.666 330.17 415.298 330.17 412.01V389.305H335.858V413.572C335.858 417.544 334.621 420.815 332.147 423.387C329.364 426.251 325.946 427.684 321.894 427.684C317.841 427.684 314.431 426.251 311.664 423.387C309.19 420.815 307.953 417.544 307.953 413.572V389.305H313.642ZM350.604 389.305V421.653H361.688V427H344.916V389.305H350.604Z" fill="black"/>
</svg>
