<svg width="512" height="512" viewBox="0 0 512 512" fill="none" xmlns="http://www.w3.org/2000/svg">
<rect width="512" height="512" fill="white"/>
<path d="M175 367C175 325.454 175 216.96 175 208.769C175 199.942 176.247 198.529 187.468 198.529C199.935 198.529 305.909 198.529 320.455 198.529C332.922 198.529 335 199.589 335 208.769C335 218.129 334.584 325.924 335 367" stroke="black" stroke-width="15" stroke-linecap="round" stroke-linejoin="round"/>
<circle cx="255" cy="128.882" r="48.9706" stroke="black" stroke-width="15"/>
<path d="M214.544 307.277C221.214 315.935 243.724 337.523 254.145 347.235C261.926 340.298 280.292 322.116 294.163 307.277C305.835 294.79 303.481 275.643 294.163 266.902C280.407 253.999 260.398 266.902 254.145 281.054C248.309 266.902 229.134 254.415 214.544 266.902C202.898 276.87 206.207 296.455 214.544 307.277Z" stroke="black" stroke-width="15" stroke-linecap="round" stroke-linejoin="round"/>
<path d="M181.806 394.651H166.693V403.709H181.366V409.056H166.693V421.653H181.806V427H161.005V389.305H181.806V394.651ZM199.677 394.651V427H193.988V394.651H185.321V389.305H208.319V394.651H199.677ZM219.086 404.051H235.346V389.305H241.034V427H235.346V409.397H219.086V427H213.397V389.305H219.086V404.051ZM255.756 389.305V427H250.067V389.305H255.756ZM292.67 391.331V398.069C289.382 395.319 285.98 393.943 282.465 393.943C278.591 393.943 275.328 395.335 272.675 398.118C270.006 400.885 268.671 404.271 268.671 408.274C268.671 412.229 270.006 415.566 272.675 418.284C275.344 421.002 278.616 422.361 282.489 422.361C284.491 422.361 286.192 422.036 287.592 421.385C288.373 421.059 289.179 420.62 290.009 420.066C290.855 419.513 291.742 418.846 292.67 418.064V424.925C289.415 426.764 285.997 427.684 282.416 427.684C277.029 427.684 272.431 425.804 268.622 422.044C264.83 418.252 262.934 413.678 262.934 408.323C262.934 403.522 264.521 399.241 267.694 395.481C271.601 390.875 276.654 388.572 282.855 388.572C286.241 388.572 289.512 389.492 292.67 391.331ZM322.943 417.845H306.806L302.606 427H296.479L315.131 386.937L333.124 427H326.898L322.943 417.845ZM320.624 412.498L315.033 399.681L309.174 412.498H320.624ZM343.549 389.305V421.653H354.633V427H337.86V389.305H343.549Z" fill="black"/>
</svg>
