<svg width="512" height="512" viewBox="0 0 512 512" fill="none" xmlns="http://www.w3.org/2000/svg">
<rect width="512" height="512" fill="white"/>
<path d="M176 258.583L171.024 258.09C170.885 259.495 171.346 260.894 172.294 261.94C173.242 262.987 174.588 263.583 176 263.583V258.583ZM193.5 82V77C190.93 77 188.778 78.949 188.524 81.5069L193.5 82ZM333 82L337.889 83.0464C338.205 81.5701 337.837 80.0301 336.888 78.8561C335.939 77.6822 334.51 77 333 77V82ZM304 217.5L299.111 216.454C298.795 217.93 299.163 219.47 300.112 220.644C301.061 221.818 302.49 222.5 304 222.5V217.5ZM355.5 217.5L359.854 219.959C360.728 218.411 360.714 216.515 359.818 214.98C358.922 213.444 357.278 212.5 355.5 212.5V217.5ZM209.5 476L204.554 475.265C204.2 477.648 205.596 479.946 207.876 480.729C210.155 481.512 212.668 480.557 213.854 478.459L209.5 476ZM241.826 258.583L246.771 259.319C246.985 257.88 246.562 256.42 245.612 255.318C244.663 254.217 243.28 253.583 241.826 253.583V258.583ZM180.976 259.077L198.476 82.4931L188.524 81.5069L171.024 258.09L180.976 259.077ZM193.5 87H333V77H193.5V87ZM328.111 80.9536L299.111 216.454L308.889 218.546L337.889 83.0464L328.111 80.9536ZM304 222.5H355.5V212.5H304V222.5ZM351.146 215.041L205.146 473.541L213.854 478.459L359.854 219.959L351.146 215.041ZM214.446 476.735L246.771 259.319L236.88 257.848L204.554 475.265L214.446 476.735ZM241.826 253.583H176V263.583H241.826V253.583Z" fill="black"/>
</svg>
