<svg width="512" height="512" viewBox="0 0 512 512" fill="none" xmlns="http://www.w3.org/2000/svg">
<rect width="512" height="512" fill="white"/>
<path d="M176 258.583L166.049 257.597C165.77 260.407 166.693 263.204 168.588 265.297C170.484 267.39 173.176 268.583 176 268.583V258.583ZM193.5 82V72C188.359 72 184.056 75.8979 183.549 81.0138L193.5 82ZM333 82L342.779 84.0928C343.41 81.1402 342.674 78.0602 340.776 75.7122C338.877 73.3643 336.019 72 333 72V82ZM304 217.5L294.221 215.407C293.59 218.36 294.326 221.44 296.224 223.788C298.123 226.136 300.981 227.5 304 227.5V217.5ZM355.5 217.5L364.207 222.418C365.956 219.322 365.929 215.53 364.136 212.459C362.344 209.388 359.056 207.5 355.5 207.5V217.5ZM209.5 476L199.609 474.529C198.9 479.297 201.693 483.892 206.251 485.458C210.81 487.023 215.837 485.115 218.207 480.918L209.5 476ZM241.826 258.583L251.717 260.054C252.145 257.177 251.299 254.256 249.399 252.053C247.499 249.85 244.735 248.583 241.826 248.583V258.583ZM185.951 259.57L203.451 82.9862L183.549 81.0138L166.049 257.597L185.951 259.57ZM193.5 92H333V72H193.5V92ZM323.221 79.9072L294.221 215.407L313.779 219.593L342.779 84.0928L323.221 79.9072ZM304 227.5H355.5V207.5H304V227.5ZM346.793 212.582L200.793 471.082L218.207 480.918L364.207 222.418L346.793 212.582ZM219.391 477.471L251.717 260.054L231.935 257.113L199.609 474.529L219.391 477.471ZM241.826 248.583H176V268.583H241.826V248.583Z" fill="black"/>
</svg>
