<svg width="512" height="512" viewBox="0 0 512 512" fill="none" xmlns="http://www.w3.org/2000/svg">
<rect width="512" height="512" fill="white"/>
<path d="M204 208.561L196.536 207.824C196.328 209.931 197.021 212.028 198.442 213.597C199.864 215.166 201.883 216.061 204 216.061V208.561ZM215.894 88V80.5C212.037 80.5 208.809 83.4253 208.43 87.2636L215.894 88ZM310.708 88L318.043 89.5629C318.515 87.3491 317.961 85.0408 316.537 83.2815C315.113 81.5222 312.971 80.5 310.708 80.5V88ZM290.997 180.511L283.662 178.949C283.19 181.162 283.744 183.471 285.167 185.23C286.591 186.989 288.734 188.011 290.997 188.011V180.511ZM326 180.511L332.538 184.187C333.843 181.865 333.819 179.024 332.474 176.724C331.128 174.425 328.664 173.011 326 173.011V180.511ZM226.769 357L219.35 355.902C218.82 359.48 220.919 362.926 224.342 364.096C227.764 365.267 231.534 363.828 233.306 360.676L226.769 357ZM248.74 208.561L256.159 209.659C256.478 207.502 255.843 205.312 254.418 203.661C252.993 202.01 250.92 201.061 248.74 201.061V208.561ZM211.464 209.297L223.358 88.7364L208.43 87.2636L196.536 207.824L211.464 209.297ZM215.894 95.5H310.708V80.5H215.894V95.5ZM303.372 86.4371L283.662 178.949L298.333 182.074L318.043 89.5629L303.372 86.4371ZM290.997 188.011H326V173.011H290.997V188.011ZM319.462 176.836L220.231 353.324L233.306 360.676L332.538 184.187L319.462 176.836ZM234.188 358.098L256.159 209.659L241.32 207.463L219.35 355.902L234.188 358.098ZM248.74 201.061H204V216.061H248.74V201.061Z" fill="black"/>
<path d="M196.283 389.305V421.653H207.367V427H190.595V389.305H196.283ZM218.451 389.305V427H212.763V389.305H218.451ZM246.894 407.371H262.47V408.616C262.47 411.448 262.136 413.955 261.469 416.136C260.818 418.154 259.719 420.042 258.173 421.8C254.674 425.739 250.222 427.708 244.818 427.708C239.545 427.708 235.028 425.804 231.269 421.995C227.509 418.17 225.629 413.58 225.629 408.226C225.629 402.757 227.541 398.118 231.366 394.31C235.191 390.485 239.846 388.572 245.331 388.572C248.277 388.572 251.028 389.174 253.583 390.379C256.024 391.583 258.425 393.536 260.785 396.238L256.732 400.12C253.64 396.002 249.872 393.943 245.429 393.943C241.441 393.943 238.096 395.319 235.395 398.069C232.693 400.771 231.342 404.157 231.342 408.226C231.342 412.425 232.847 415.883 235.858 418.602C238.674 421.124 241.726 422.386 245.014 422.386C247.813 422.386 250.328 421.442 252.558 419.554C254.787 417.649 256.033 415.371 256.293 412.718H246.894V407.371ZM275.336 404.051H291.596V389.305H297.284V427H291.596V409.397H275.336V427H269.647V389.305H275.336V404.051ZM316.718 394.651V427H311.029V394.651H302.362V389.305H325.36V394.651H316.718Z" fill="black"/>
</svg>
